<svg xmlns="http://www.w3.org/2000/svg" width="16" height="16" viewBox="0 0 16 16">
  <g id="组_6840" data-name="组 6840" transform="translate(-596 -727)">
    <g id="组_6839" data-name="组 6839" transform="translate(34)">
      <rect id="矩形_885" data-name="矩形 885" width="16" height="16" transform="translate(562 727)" fill="none"/>
    </g>
    <g id="组_6629" data-name="组 6629" transform="translate(545.77 706.115)">
      <path id="路径_6853" data-name="路径 6853" d="M58.337,21.609a2.771,2.771,0,0,0-2.768,2.681h-3.5a.706.706,0,0,0,0,1.412h.779v7.9A2.5,2.5,0,0,0,55.1,36.3h6.331A2.5,2.5,0,0,0,63.68,33.6V25.707h.706a.706.706,0,0,0,0-1.412H61.1a2.763,2.763,0,0,0-2.763-2.686ZM56.892,24.29a1.447,1.447,0,0,1,2.888,0ZM55.1,34.976c-.44,0-.925-.565-.925-1.375V25.707h8.181v7.9c0,.807-.485,1.375-.925,1.375H55.1Zm0,0" fill="#fff"/>
      <path id="路径_6854" data-name="路径 6854" d="M325.618,433.033a.676.676,0,0,0,.595-.735V428.1a.608.608,0,1,0-1.19,0V432.3A.673.673,0,0,0,325.618,433.033Zm2.153,0a.676.676,0,0,0,.595-.735V428.1a.608.608,0,1,0-1.19,0V432.3A.678.678,0,0,0,327.771,433.033Zm2.265,0a.676.676,0,0,0,.595-.735V428.1a.608.608,0,1,0-1.19,0V432.3A.671.671,0,0,0,330.037,433.033Zm0,0" transform="translate(-269.595 -399.734)" fill="#fff"/>
    </g>
  </g>
</svg>
