<svg xmlns="http://www.w3.org/2000/svg" width="16.142" height="16" viewBox="0 0 16.142 16">
  <g id="组_6838" data-name="组 6838" transform="translate(-561.929 -727)">
    <rect id="矩形_885" data-name="矩形 885" width="16" height="16" transform="translate(562 727)" fill="none"/>
    <g id="组_6837" data-name="组 6837" transform="translate(498.925 491.256)">
      <path id="路径_8635" data-name="路径 8635" d="M324.706,396.423a3.284,3.284,0,1,1,3.344-3.284A3.319,3.319,0,0,1,324.706,396.423Zm0-5.5a2.213,2.213,0,1,0,2.273,2.213A2.246,2.246,0,0,0,324.706,390.926Z" transform="translate(-253.677 -149.395)" fill="#fff" stroke="#fff" stroke-width="0.13"/>
      <path id="路径_8636" data-name="路径 8636" d="M71.212,249.744h0l-.143,0c-4.6-.005-7.789-5.5-7.923-5.732a.536.536,0,0,1,0-.532c.134-.234,3.327-5.732,7.93-5.732s7.8,5.5,7.93,5.732a.536.536,0,0,1,.007.519C78.886,244.232,75.875,249.744,71.212,249.744Zm-6.973-6c.677,1.06,3.385,4.927,6.836,4.927h.014l.122,0c3.5,0,6.07-3.867,6.7-4.92-.669-1.048-3.381-4.935-6.841-4.935S64.915,242.683,64.239,243.744Z" transform="translate(0 0)" fill="#fff" stroke="#fff" stroke-width="0.13"/>
    </g>
  </g>
</svg>
