<svg xmlns="http://www.w3.org/2000/svg" xmlns:xlink="http://www.w3.org/1999/xlink" width="16" height="16" viewBox="0 0 16 16">
  <defs>
    <linearGradient id="linear-gradient" x1="0.5" x2="0.5" y2="1" gradientUnits="objectBoundingBox">
      <stop offset="0" stop-color="#54adff"/>
      <stop offset="1" stop-color="#1786ec"/>
    </linearGradient>
  </defs>
  <g id="组_8510" data-name="组 8510" transform="translate(-216 -139)">
    <g id="组_8509" data-name="组 8509" transform="translate(-93 123)">
      <rect id="矩形_1042" data-name="矩形 1042" width="16" height="16" transform="translate(309 16)" fill="none"/>
    </g>
    <path id="路径_10020" data-name="路径 10020" d="M104.3,102.4H99.01a2.005,2.005,0,0,0-2.072,1.932v8.017a2.005,2.005,0,0,0,2.072,1.932h7.359v-9.949A2.005,2.005,0,0,0,104.3,102.4Zm.269,8.254H98.886a.484.484,0,1,1,0-.966h5.7a.484.484,0,1,1,0,.966Zm0-3.927H98.886a.484.484,0,1,1,0-.966h5.7a.484.484,0,1,1,0,.966Zm3.159-.56a.822.822,0,0,0-.562.218.714.714,0,0,0-.23.526v7.356h.792a1.812,1.812,0,0,0,1.875-1.724v-4.627A1.815,1.815,0,0,0,107.726,106.167Z" transform="translate(120.73 38.659)" fill="url(#linear-gradient)"/>
  </g>
</svg>
