<svg xmlns="http://www.w3.org/2000/svg" xmlns:xlink="http://www.w3.org/1999/xlink" width="16" height="16" viewBox="0 0 16 16">
  <defs>
    <linearGradient id="linear-gradient" x1="0.5" x2="0.5" y2="1" gradientUnits="objectBoundingBox">
      <stop offset="0" stop-color="#54adff"/>
      <stop offset="1" stop-color="#1786ec"/>
    </linearGradient>
  </defs>
  <g id="组_8535" data-name="组 8535" transform="translate(-339 -230)">
    <rect id="矩形_1051" data-name="矩形 1051" width="16" height="16" transform="translate(339 230)" fill="none"/>
    <g id="组_8534" data-name="组 8534" transform="translate(-0.844 2.743)">
      <path id="路径_10026" data-name="路径 10026" d="M104.9,81.05H95.323a1.469,1.469,0,0,0-1.473,1.469V92.838a1.471,1.471,0,0,0,1.473,1.469H104.9a1.469,1.469,0,0,0,1.473-1.469V82.52A1.471,1.471,0,0,0,104.9,81.05Zm-8.021,1.921a1.105,1.105,0,1,1-1.105,1.105A1.1,1.1,0,0,1,96.876,82.971Z" transform="translate(247.734 147.95)" fill="url(#linear-gradient)"/>
      <rect id="矩形_1049" data-name="矩形 1049" width="8.826" height="1.61" rx="0.805" transform="translate(343.369 234.434)" fill="#fff"/>
      <rect id="矩形_1050" data-name="矩形 1050" width="8.826" height="1.581" rx="0.791" transform="translate(343.369 237.896)" fill="#fff"/>
    </g>
  </g>
</svg>
