<svg xmlns="http://www.w3.org/2000/svg" xmlns:xlink="http://www.w3.org/1999/xlink" width="16" height="16" viewBox="0 0 16 16">
  <defs>
    <linearGradient id="linear-gradient" x1="0.218" x2="0.832" y2="0.809" gradientUnits="objectBoundingBox">
      <stop offset="0" stop-color="#54adff"/>
      <stop offset="1" stop-color="#1786ec"/>
    </linearGradient>
  </defs>
  <g id="组_8502" data-name="组 8502" transform="translate(-309 -16)">
    <rect id="矩形_1042" data-name="矩形 1042" width="16" height="16" transform="translate(309 16)" fill="none"/>
    <g id="组icon_copy" data-name="组icon copy" transform="translate(310.875 18.75)">
      <g id="编组_7备份" data-name="编组 7备份" transform="translate(0)">
        <path id="形状结合" d="M0,1.686H0V1.294A1.432,1.432,0,0,1,1.509,0H5.674a.871.871,0,0,1,.615.252l1.34,1.323H0Z" transform="translate(0)" fill="url(#linear-gradient)"/>
        <path id="矩形" d="M0,0H10.25a2,2,0,0,1,2,2V5.875a2,2,0,0,1-2,2H2a2,2,0,0,1-2-2V0A0,0,0,0,1,0,0Z" transform="translate(0.002 2.625)" fill="url(#linear-gradient)"/>
      </g>
    </g>
  </g>
</svg>
