<svg xmlns="http://www.w3.org/2000/svg" xmlns:xlink="http://www.w3.org/1999/xlink" width="16" height="16" viewBox="0 0 16 16">
  <defs>
    <linearGradient id="linear-gradient" x1="0.5" x2="0.5" y2="1" gradientUnits="objectBoundingBox">
      <stop offset="0" stop-color="#54adff"/>
      <stop offset="1" stop-color="#1786ec"/>
    </linearGradient>
  </defs>
  <g id="组_8515" data-name="组 8515" transform="translate(-147 -233)">
    <rect id="矩形_1045" data-name="矩形 1045" width="16" height="16" transform="translate(147 233)" fill="none"/>
    <path id="路径_10023" data-name="路径 10023" d="M37.92,7.89l2.693,1.524a.506.506,0,0,1,.259.44V12.9a.507.507,0,0,1-.259.44L37.92,14.862a.529.529,0,0,1-.518,0L34.71,13.338a.507.507,0,0,1-.259-.44V9.852a.5.5,0,0,1,.259-.44L37.4,7.888a.529.529,0,0,1,.519,0h0ZM38.529.384a1.285,1.285,0,0,1,1.3,1.272V7.2a.254.254,0,0,1-.131.219.263.263,0,0,1-.259,0L38.505,6.9a1.717,1.717,0,0,0-1.687,0L34.128,8.42a1.649,1.649,0,0,0-.844,1.434v3.814a.258.258,0,0,1-.259.254H28.947a1.312,1.312,0,0,1-.919-.373,1.259,1.259,0,0,1-.38-.9V1.656a1.286,1.286,0,0,1,1.3-1.272Zm-.867,10.19a.732.732,0,1,0,.746.731.739.739,0,0,0-.746-.731ZM33.07,5.669H30.161a.529.529,0,1,0,0,1.058H33.07a.529.529,0,1,0,0-1.058Zm3.967-2.645H30.161a.529.529,0,0,0,0,1.058h6.876a.529.529,0,0,0,0-1.058Z" transform="translate(121.004 233.633)" fill="url(#linear-gradient)"/>
  </g>
</svg>
