<svg xmlns="http://www.w3.org/2000/svg" xmlns:xlink="http://www.w3.org/1999/xlink" width="13" height="13" viewBox="0 0 13 13">
  <defs>
    <linearGradient id="linear-gradient" x1="0.5" x2="0.5" y2="1" gradientUnits="objectBoundingBox">
      <stop offset="0" stop-color="#54adff"/>
      <stop offset="1" stop-color="#1786ec"/>
    </linearGradient>
  </defs>
  <g id="组_7645" data-name="组 7645" transform="translate(-414 -775)">
    <rect id="矩形_337" data-name="矩形 337" width="13" height="13" transform="translate(414 775)" fill="none"/>
    <path id="路径_9014" data-name="路径 9014" d="M44.223,88.287h-.382v-6.26A1.137,1.137,0,0,0,42.7,80.9H40.446v7.385h-.679v-9a1.009,1.009,0,0,0-.318-.764,1.055,1.055,0,0,0-.764-.3H34.016a1.077,1.077,0,0,0-.764.318,1.132,1.132,0,0,0-.318.764v9h-.382A.582.582,0,0,0,32,88.86a.548.548,0,0,0,.552.552H44.181a.556.556,0,0,0,.4-.934A.375.375,0,0,0,44.223,88.287Zm-2.95-5.008a.29.29,0,0,1,.3-.3h1.146a.29.29,0,0,1,.3.3v.509a.29.29,0,0,1-.3.3H41.57a.29.29,0,0,1-.3-.3Zm-4.35-2.058a.29.29,0,0,1,.3-.3h1.146a.29.29,0,0,1,.3.3v.509a.29.29,0,0,1-.3.3H37.22a.29.29,0,0,1-.3-.3Zm0,2.058a.29.29,0,0,1,.3-.3h1.146a.377.377,0,0,1,.212.085.272.272,0,0,1,.085.212v.509a.29.29,0,0,1-.3.3H37.22a.29.29,0,0,1-.3-.3Zm0,2.08a.29.29,0,0,1,.3-.3h1.146a.29.29,0,0,1,.3.3v.509a.29.29,0,0,1-.3.3H37.22a.29.29,0,0,1-.3-.3Zm-2.886-4.138a.29.29,0,0,1,.3-.3H35.48a.29.29,0,0,1,.3.3v.509a.29.29,0,0,1-.3.3H34.334a.29.29,0,0,1-.3-.3Zm0,2.058a.29.29,0,0,1,.3-.3H35.48a.377.377,0,0,1,.212.085.272.272,0,0,1,.085.212v.509a.29.29,0,0,1-.3.3H34.334a.29.29,0,0,1-.3-.3Zm0,2.08a.29.29,0,0,1,.3-.3H35.48a.29.29,0,0,1,.3.3v.509a.29.29,0,0,1-.3.3H34.334a.29.29,0,0,1-.3-.3Zm0,0" transform="translate(382 697.57)" fill="url(#linear-gradient)"/>
  </g>
</svg>
