<svg id="组织" xmlns="http://www.w3.org/2000/svg" xmlns:xlink="http://www.w3.org/1999/xlink" width="16" height="16" viewBox="0 0 16 16">
  <defs>
    <linearGradient id="linear-gradient" x1="0.218" x2="0.832" y2="0.809" gradientUnits="objectBoundingBox">
      <stop offset="0" stop-color="#54adff"/>
      <stop offset="1" stop-color="#1786ec"/>
    </linearGradient>
  </defs>
  <path id="矩形" d="M1.895,0H14.105A1.9,1.9,0,0,1,16,1.895V14.105A1.9,1.9,0,0,1,14.105,16H1.895A1.9,1.9,0,0,1,0,14.105V1.895A1.9,1.9,0,0,1,1.895,0Z" fill="url(#linear-gradient)"/>
  <path id="形状" d="M7.395,8.775A1.531,1.531,0,0,1,8.875,7.2a1.531,1.531,0,0,1,1.478,1.577,1.531,1.531,0,0,1-1.478,1.578A1.531,1.531,0,0,1,7.395,8.775ZM0,8.769A1.53,1.53,0,0,1,1.479,7.191,1.53,1.53,0,0,1,2.958,8.769a1.531,1.531,0,0,1-1.479,1.578A1.531,1.531,0,0,1,0,8.769Zm3.575-.043A1.53,1.53,0,0,1,5.053,7.148,1.531,1.531,0,0,1,6.532,8.726,1.531,1.531,0,0,1,5.053,10.3,1.53,1.53,0,0,1,3.575,8.726ZM8.519,6.462V5.378a.3.3,0,0,0-.259-.315H5.437v1.4H4.725v-1.4H1.909a.292.292,0,0,0-.259.315V6.462H.938V5.378a.994.994,0,0,1,.971-1.014H4.725V3.116a1.559,1.559,0,0,1-1.15-1.539A1.531,1.531,0,0,1,5.053,0,1.531,1.531,0,0,1,6.532,1.578,1.566,1.566,0,0,1,5.437,3.1V4.364H8.259A.994.994,0,0,1,9.23,5.378V6.462Z" transform="translate(2.824 2.824)" fill="#fafbfc"/>
</svg>
