<svg xmlns="http://www.w3.org/2000/svg" xmlns:xlink="http://www.w3.org/1999/xlink" width="16" height="16" viewBox="0 0 16 16">
  <defs>
    <linearGradient id="linear-gradient" x1="0.5" x2="0.5" y2="1" gradientUnits="objectBoundingBox">
      <stop offset="0" stop-color="#54adff"/>
      <stop offset="1" stop-color="#1786ec"/>
    </linearGradient>
  </defs>
  <g id="组_8507" data-name="组 8507" transform="translate(-146 -130)">
    <rect id="矩形_1044" data-name="矩形 1044" width="16" height="16" transform="translate(146 130)" fill="none"/>
    <g id="组_8506" data-name="组 8506" transform="translate(-20.915 -18.469)">
      <path id="路径_10018" data-name="路径 10018" d="M12.083,9.639a.292.292,0,0,1,.26.164L13.7,13.351l.027.074a.323.323,0,0,1-.034.232.292.292,0,0,1-.253.151H1.3a.293.293,0,0,1-.253-.151.324.324,0,0,1-.007-.305L2.4,9.8a.293.293,0,0,1,.26-.162H4.374l3,2.574,3-2.575Z" transform="translate(167.543 149.06)" fill="url(#linear-gradient)"/>
      <path id="路径_10019" data-name="路径 10019" d="M71.9,64.2a3.737,3.737,0,0,1,3.734,3.736c0,2.284-2.252,4.333-3.412,5.434a.468.468,0,0,1-.644,0c-1.19-1.132-3.411-3.141-3.411-5.434A3.733,3.733,0,0,1,71.9,64.2Zm0,2.332a1.4,1.4,0,1,0,1.236.694A1.4,1.4,0,0,0,71.9,66.532Zm0,0" transform="translate(103.017 85.871)" fill="url(#linear-gradient)"/>
    </g>
  </g>
</svg>
