<svg id="组_8628" data-name="组 8628" xmlns="http://www.w3.org/2000/svg" width="14" height="14" viewBox="0 0 14 14">
  <path id="路径_10010" data-name="路径 10010" d="M7,14a7.206,7.206,0,0,1-4.972-2.013,7.04,7.04,0,0,1,0-9.887A6.925,6.925,0,0,1,7,0a7.206,7.206,0,0,1,4.972,2.013,7.04,7.04,0,0,1,0,9.887A6.925,6.925,0,0,1,7,14ZM7,.875A5.666,5.666,0,0,0,2.726,2.712a6.193,6.193,0,0,0,0,8.662A5.918,5.918,0,0,0,7,13.125a5.666,5.666,0,0,0,4.274-1.838,6.193,6.193,0,0,0,0-8.662A5.918,5.918,0,0,0,7,.875Z" transform="translate(0 0)" fill="#bdc1c9"/>
  <path id="路径_10011" data-name="路径 10011" d="M482.086,249.926c-.291,0-.486-.16-.486-.4V243.52c0-.16.194-.32.486-.32s.486.16.486.32v6.005C482.571,249.766,482.377,249.926,482.086,249.926Z" transform="translate(-475.086 -239.563)" fill="#bdc1c9"/>
  <path id="路径_10012" data-name="路径 10012" d="M251.2,480.971H245.12c-.16,0-.32-.194-.32-.486s.16-.486.32-.486h6c.24,0,.4.194.4.486S251.361,480.971,251.2,480.971Z" transform="translate(-241.161 -473.486)" fill="#bdc1c9"/>
</svg>
