<svg xmlns="http://www.w3.org/2000/svg" xmlns:xlink="http://www.w3.org/1999/xlink" width="256" height="256" viewBox="0 0 256 256"><defs><style>.a{fill:none;}.b{fill:url(#a);}.c{fill:url(#b);}.d{fill:url(#c);}.e{fill:url(#d);}.f{fill:url(#e);}.g{fill:url(#f);}.h{fill:url(#g);}.i{fill:url(#h);}.j{fill:url(#i);}.k{fill:url(#j);}.l{fill:url(#k);}.m{fill:url(#l);}.n{fill:url(#m);}.o{fill:url(#n);}.p{fill:url(#o);}.q{fill:url(#p);}.r{fill:#e2e4ed;}.s{stroke:#fff;stroke-width:0.7px;fill:url(#q);}.t{fill:#c7cce0;}.u{fill:#fff;}</style><linearGradient id="a" y1="0.5" x2="1" y2="0.5" gradientUnits="objectBoundingBox"><stop offset="0" stop-color="#e7edf5"/><stop offset="0.566" stop-color="#b3c7dd"/></linearGradient><linearGradient id="b" y1="0.5" x2="1" y2="0.5" gradientUnits="objectBoundingBox"><stop offset="0" stop-color="#eff1fc"/><stop offset="0.99" stop-color="#e1e5f5" stop-opacity="0.788"/><stop offset="1" stop-color="#c7cce0" stop-opacity="0.8"/></linearGradient><linearGradient id="c" x1="0" y1="0.5" x2="1" y2="0.5" xlink:href="#a"/><linearGradient id="d" x1="0" y1="0.5" x2="0.999" y2="0.5" xlink:href="#a"/><linearGradient id="e" x1="0" y1="0.5" x2="1" y2="0.5" xlink:href="#a"/><linearGradient id="f" x1="0" y1="0.5" x2="1" y2="0.5" xlink:href="#a"/><linearGradient id="g" x1="0" y1="0.5" x2="1" y2="0.5" xlink:href="#a"/><linearGradient id="h" x1="0" y1="0.5" x2="1" y2="0.5" xlink:href="#a"/><linearGradient id="i" x1="0" y1="0.5" x2="1" y2="0.5" xlink:href="#a"/><linearGradient id="j" x1="0" y1="0.498" x2="1" y2="0.498" xlink:href="#a"/><linearGradient id="k" x1="0" y1="0.5" x2="0.999" y2="0.5" xlink:href="#a"/><linearGradient id="l" x1="0" y1="0.5" x2="1" y2="0.5" xlink:href="#a"/><linearGradient id="m" x1="0" y1="0.5" x2="1" y2="0.5" xlink:href="#a"/><linearGradient id="n" x1="0" y1="0.5" x2="1" y2="0.5" xlink:href="#a"/><linearGradient id="o" x1="1.018" y1="0.802" x2="-0.018" y2="0.198" gradientUnits="objectBoundingBox"><stop offset="0" stop-color="#fff" stop-opacity="0"/><stop offset="1" stop-color="#9db9e0"/></linearGradient><linearGradient id="p" x1="0.5" y1="1" x2="0.5" gradientUnits="objectBoundingBox"><stop offset="0" stop-color="#fff" stop-opacity="0"/><stop offset="0.99" stop-color="#e1e5f5" stop-opacity="0.788"/><stop offset="1" stop-color="#c7cce0" stop-opacity="0.8"/></linearGradient><linearGradient id="q" x1="0.5" x2="0.5" y2="1" gradientUnits="objectBoundingBox"><stop offset="0" stop-color="#eff1fc"/><stop offset="0.99" stop-color="#c7cce0"/><stop offset="1" stop-color="#c7cce0" stop-opacity="0.8"/></linearGradient></defs><g transform="translate(-247 -664)"><g transform="translate(0 -330)"><rect class="a" width="256" height="256" transform="translate(247 994)"/></g><g transform="translate(116.62 497.461)"><g transform="translate(163.054 182.539)"><g transform="translate(30.83 58.194)"><circle class="b" cx="2.652" cy="2.652" r="2.652"/></g><g transform="translate(168.893 86.866)"><circle class="c" cx="5.556" cy="5.556" r="5.556"/></g><g transform="translate(128.631 34.746)"><circle class="d" cx="2.192" cy="2.192" r="2.192"/></g><g transform="translate(160.524 17.693)"><circle class="e" cx="1.889" cy="1.889" r="1.889"/></g><g transform="translate(180.005 59.903)"><circle class="f" cx="2.611" cy="2.611" r="2.611"/></g><g transform="translate(142.887 133.995)"><circle class="g" cx="2.469" cy="2.469" r="2.469"/></g><g transform="translate(70.315 146.999)"><path class="h" d="M436.734,662.047a3.674,3.674,0,1,1,3.674-3.674A3.677,3.677,0,0,1,436.734,662.047Zm0-5.3a1.63,1.63,0,1,0,1.63,1.63A1.632,1.632,0,0,0,436.734,656.743Z" transform="translate(-433.06 -654.7)"/></g><g transform="translate(-11 70.303)"><path class="i" d="M218.278,480.309h-7.089a1.12,1.12,0,0,1-1.119-1.119h0a1.12,1.12,0,0,1,1.119-1.119h7.089a1.12,1.12,0,0,1,1.119,1.119h0A1.12,1.12,0,0,1,218.278,480.309Z" transform="translate(-210.07 -478.07)"/></g><g transform="translate(-7.5 66.759)"><path class="j" d="M221.17,474.994v-7a1.163,1.163,0,0,1,1.164-1.164h0a1.163,1.163,0,0,1,1.164,1.164v7a1.163,1.163,0,0,1-1.164,1.164h0A1.163,1.163,0,0,1,221.17,474.994Z" transform="translate(-221.17 -466.83)"/></g><g transform="translate(2.904 44.423)"><path class="k" d="M224.609,330.851h-4.6a.725.725,0,0,1-.725-.725h0a.725.725,0,0,1,.725-.725h4.6a.725.725,0,0,1,.725.725h0A.725.725,0,0,1,224.609,330.851Z" transform="translate(-219.28 -329.4)"/></g><g transform="translate(5.175 42.118)"><path class="l" d="M226.48,327.391v-4.544a.757.757,0,0,1,.757-.757h0a.757.757,0,0,1,.757.757v4.544a.757.757,0,0,1-.757.757h0A.757.757,0,0,1,226.48,327.391Z" transform="translate(-226.48 -322.09)"/></g><g transform="translate(86.494 11.228)"><path class="m" d="M490.68,267.034q-3.155-4.583-6.31-9.163.534-1.017,1.069-2.031,2.351.123,4.7.249Q490.413,261.562,490.68,267.034Z" transform="translate(-484.37 -255.84)"/></g><g transform="translate(81.178 17.925)"><path class="n" d="M476.8,282.964q-4.375-.8-8.747-1.611c-.18-.583-.363-1.17-.545-1.753q1.4-1.258,2.8-2.519Q473.56,280.022,476.8,282.964Z" transform="translate(-467.51 -277.08)"/></g><g transform="translate(94.251 12.483)"><path class="o" d="M508.97,268.305q.326-3.926.656-7.852l1.5-.634q1.234,1.126,2.466,2.248Q511.281,265.19,508.97,268.305Z" transform="translate(-508.97 -259.82)"/></g></g><path class="p" d="M491.76,545.414q3.8-11.286,7.6-22.574" transform="translate(-239.882 -234.881)"/></g><g transform="translate(247 811.01)"><path class="q" d="M127.722,0a344.058,344.058,0,0,1,63.6,5.629c38.221,7.274,64.121,21.041,64.121,36.817,0,23.442-57.183,42.446-127.722,42.446S0,65.888,0,42.446,57.183,0,127.722,0Z"/></g><g transform="translate(14.53 206.071)"><g transform="translate(214.36 286.072)"><path class="r" d="M64,281.177l35.868-28.416a3.4,3.4,0,0,1,2.118-.761H167.9a3.407,3.407,0,0,1,2.132.771l35.526,28.405v63c0,2.463-1.7,4.46-3.792,4.46H67.792c-2.094,0-3.792-2-3.792-4.46Z" transform="translate(11.726 -8.781)"/><path class="s" d="M64,409h44.731c2.094,0,3.792,2.195,3.792,4.9v9.126c0,2.707,1.7,4.9,3.792,4.9h36.832c2.094,0,3.792-2.195,3.792-4.9V413.9c0-2.707,1.7-4.9,3.792-4.9h44.824v72.507a1.485,1.485,0,0,1-1.264,1.634H65.264A1.485,1.485,0,0,1,64,481.507Z" transform="translate(11.726 -136.603)"/><path class="t" d="M87.177,28.928c-.187-.006-.371.006-.557.007V24.117a1.5,1.5,0,0,0-2.35-1.361L68.459,34.5a1.734,1.734,0,0,0,0,2.722l15.812,11.74a1.5,1.5,0,0,0,2.35-1.361V42.727A13.925,13.925,0,0,1,100.88,55.959,14.066,14.066,0,0,1,92.717,69.2a.291.291,0,0,0-.178.3c.007.14.137.181.253.143a20.682,20.682,0,0,0,14.16-19.294c.281-11.5-8.572-21.092-19.774-21.421Z" transform="translate(55.217 197.741)"/><path class="u" d="M217.75,187.218a3,3,0,0,0-.763-2.024,2.5,2.5,0,0,0-1.849-.839H180.6a2.5,2.5,0,0,0-1.849.839,3,3,0,0,0-.763,2.024v.017a2.743,2.743,0,0,0,2.613,2.857h34.535a2.743,2.743,0,0,0,2.613-2.857Zm-15.738-14.341a3,3,0,0,0-.763-2.024,2.5,2.5,0,0,0-1.849-.839H180.6a2.5,2.5,0,0,0-1.849.839,3,3,0,0,0-.763,2.024v.017a2.743,2.743,0,0,0,2.613,2.857h18.8a2.743,2.743,0,0,0,2.613-2.857Zm-15.738-14.364a2.743,2.743,0,0,0-2.613-2.857H180.6a2.743,2.743,0,0,0-2.613,2.857v.023a2.743,2.743,0,0,0,2.613,2.857h3.058a2.743,2.743,0,0,0,2.613-2.857Z" transform="translate(-85.406 135.882)"/></g></g></g></svg>