<svg xmlns="http://www.w3.org/2000/svg" xmlns:xlink="http://www.w3.org/1999/xlink" width="256" height="256" viewBox="0 0 256 256">
  <defs>
    <linearGradient id="linear-gradient" x1="0.5" y1="1" x2="0.5" gradientUnits="objectBoundingBox">
      <stop offset="0" stop-color="#fff" stop-opacity="0"/>
      <stop offset="0.99" stop-color="#e1e5f5" stop-opacity="0.788"/>
      <stop offset="1" stop-color="#c7cce0" stop-opacity="0.8"/>
    </linearGradient>
    <linearGradient id="linear-gradient-2" x1="0.789" y1="1.106" x2="0.132" y2="0.118" gradientUnits="objectBoundingBox">
      <stop offset="0" stop-color="#fff"/>
      <stop offset="0" stop-color="#fafafc" stop-opacity="0.922"/>
      <stop offset="0" stop-color="#e2e4ed" stop-opacity="0.6"/>
      <stop offset="1" stop-color="#c7cce0"/>
    </linearGradient>
    <linearGradient id="linear-gradient-3" x1="0.5" x2="0.5" y2="1" gradientUnits="objectBoundingBox">
      <stop offset="0" stop-color="#fff"/>
      <stop offset="0.03" stop-color="#f6f7fa"/>
      <stop offset="0.1" stop-color="#ebecf2"/>
      <stop offset="0.2" stop-color="#e4e6ee"/>
      <stop offset="0.48" stop-color="#e2e4ed"/>
      <stop offset="0.7" stop-color="#dadde9"/>
      <stop offset="1" stop-color="#c7cce0"/>
    </linearGradient>
  </defs>
  <g id="组_5955" data-name="组 5955" transform="translate(-1450.766 -3679.766)">
    <g id="组_5950" data-name="组 5950" transform="translate(1450.766 3679.766)">
      <rect id="矩形_30" data-name="矩形 30" width="256" height="256" transform="translate(0 0)" fill="none"/>
      <g id="组_5949" data-name="组 5949" transform="translate(0.278 147.009)">
        <ellipse id="椭圆_5" data-name="椭圆 5" cx="127.722" cy="42.446" rx="127.722" ry="42.446" fill="url(#linear-gradient)"/>
      </g>
    </g>
    <g id="组_5954" data-name="组 5954" transform="translate(1508.958 3735.127)">
      <path id="路径_6579" data-name="路径 6579" d="M278.147,76.5H183.807a7.257,7.257,0,0,0-7.257,7.257V196.24a7.257,7.257,0,0,0,7.257,7.257h76.2a7.257,7.257,0,0,0,7.257-7.257V88.293A11.793,11.793,0,0,1,278.6,76.5Z" transform="translate(-152.965 -76.5)" fill="#e2e4ed"/>
      <path id="路径_6580" data-name="路径 6580" d="M300.135,89.2a12.7,12.7,0,0,0-12.246-12.7A11.793,11.793,0,0,0,276.55,88.293v15.421h23.585Z" transform="translate(-162.253 -76.5)" fill="url(#linear-gradient-2)"/>
      <rect id="矩形_34" data-name="矩形 34" width="54.427" height="2.721" rx="1.361" transform="translate(41.728 25.853)" fill="#fff"/>
      <rect id="矩形_35" data-name="矩形 35" width="54.427" height="2.721" rx="1.361" transform="translate(41.728 34.244)" fill="#fff"/>
      <rect id="矩形_36" data-name="矩形 36" width="54.427" height="2.721" rx="1.361" transform="translate(41.728 42.635)" fill="#fff"/>
      <rect id="矩形_37" data-name="矩形 37" width="54.427" height="2.721" rx="1.361" transform="translate(41.728 51.026)" fill="#fff"/>
      <rect id="矩形_38" data-name="矩形 38" width="54.427" height="2.721" rx="1.361" transform="translate(41.728 59.416)" fill="#fff"/>
      <rect id="矩形_39" data-name="矩形 39" width="54.427" height="2.721" rx="1.361" transform="translate(41.728 67.807)" fill="#fff"/>
      <rect id="矩形_40" data-name="矩形 40" width="54.427" height="2.721" rx="1.361" transform="translate(41.728 76.198)" fill="#fff"/>
      <rect id="矩形_41" data-name="矩形 41" width="54.427" height="2.721" rx="1.361" transform="translate(41.728 84.589)" fill="#fff"/>
      <path id="路径_6581" data-name="路径 6581" d="M245.2,202.134V188.79H150.55v13.344a11.793,11.793,0,0,0,11.793,11.793h94.649A11.793,11.793,0,0,1,245.2,202.134Z" transform="translate(-150.55 -86.929)" fill="url(#linear-gradient-3)"/>
      <path id="路径_6582" data-name="路径 6582" d="M298.939,201.456c-1.482-.665-5.289.838-5.289.838s1.32,3.786,2.8,4.467l15.278,6.858,2.482-5.305Z" transform="translate(-163.841 -88.09)" fill="#c7cce0"/>
      <path id="路径_6583" data-name="路径 6583" d="M335.255,220.027a2.893,2.893,0,0,0-1.455-3.861l-.9-.406-2.482,5.305.9.406A3.007,3.007,0,0,0,335.255,220.027Z" transform="translate(-180.725 -94.736)" fill="#c7cce0"/>
    </g>
  </g>
</svg>
